<?xml version="1.0"?>
<svg xmlns="http://www.w3.org/2000/svg" xmlns:xlink="http://www.w3.org/1999/xlink" xmlns:svgjs="http://svgjs.com/svgjs" version="1.1" width="512" height="512" x="0" y="0" viewBox="0 0 512.00245 512" style="enable-background:new 0 0 512 512" xml:space="preserve" class=""><g><path xmlns="http://www.w3.org/2000/svg" d="m3.292969 506.371094c2.847656 3.558594 7.152343 5.628906 11.707031 5.628906h91c7.648438 0 14.074219-5.753906 14.910156-13.355469l5.527344-50.097656c28.457031 21.503906 63.429688 33.453125 99.5625 33.453125h60c36.136719 0 71.109375-11.949219 99.566406-33.453125l5.523438 50.097656c.839844 7.601563 7.265625 13.355469 14.910156 13.355469h91c4.554688 0 8.863281-2.070312 11.710938-5.625 2.847656-3.558594 3.921874-8.214844 2.925781-12.660156l-59.972657-267.414063 59.230469-145.648437c2.683594-6.597656.359375-14.171875-5.566406-18.125-5.921875-3.957032-13.8125-3.199219-18.875 1.808594l-69.320313 68.558593c-13.289062-54.269531-59.472656-95.761719-116.128906-102.054687v-15.839844c0-8.28125-6.714844-15-15-15h-60c-8.285156 0-15 6.71875-15 15v15.839844c-56.660156 6.292968-102.84375 47.785156-116.132812 102.054687l-69.320313-68.558593c-5.0625-5.007813-12.953125-5.765626-18.875-1.8125-5.925781 3.957031-8.253906 11.53125-5.570312 18.128906l59.230469 145.648437-59.972657 267.414063c-.996093 4.445312.082031 9.101562 2.929688 12.65625zm359.269531-266.371094 9.925781 90h-50.273437c-10.320313-9.699219-35.582032-30-66.214844-30s-55.894531 20.300781-66.210938 30h-50.277343l9.925781-90zm-76.5625 212h-60c-35.859375 0-70.324219-14.382812-95.570312-39.664062l5.773437-52.335938h59.796875c4.234375 0 8.300781-1.824219 11.144531-4.960938.226563-.25 23.003907-25.039062 48.855469-25.039062 25.855469 0 48.628906 24.789062 48.824219 25.003906 2.847656 3.179688 6.910156 4.996094 11.175781 4.996094h59.796875l5.773437 52.335938c-25.246093 25.277343-59.710937 39.664062-95.570312 39.664062zm133.4375 30c-1.667969-15.097656-25.132812-227.863281-26.691406-242h31.246094l54.269531 242zm-29.515625-332h-88.921875v-88.921875c45.914062 6.597656 82.324219 43.007813 88.921875 88.921875zm-148.921875-120h30v120h-30zm-30 31.078125v88.921875h-88.921875c6.597656-45.914062 43.007813-82.324219 88.921875-88.921875zm-115.546875 114.585937c2.714844 2.683594 6.539063 4.335938 10.546875 4.335938h300c3.863281 0 7.710938-1.53125 10.546875-4.335938l39.011719-38.582031-29.652344 72.917969c-25.960938 0-324.027344 0-339.8125 0l-29.652344-72.917969zm-7.445313 64.324219h31.246094c-.953125 8.5625-25.734375 233.347657-26.6875 242.011719h-58.828125zm0 0" fill="#dc143c" data-original="#000000" style="" class=""/></g></svg>
